
            <svg xmlns="http://www.w3.org/2000/svg">
                <filter id="grayscale">
                    <feColorMatrix type="saturate" values="0"/>
                </filter>
                <g filter="url(#grayscale)">
                    <svg xmlns="http://www.w3.org/2000/svg" viewBox="120.31 99 334.38026826386607 379.53000034332274"> <svg xmlns="http://www.w3.org/2000/svg" xmlns:xlink="http://www.w3.org/1999/xlink" version="1.1" id="Layer_1" x="190.31" y="169" viewBox="-0.0016215051291510463 0.0037097930908203125 659.21533203125 629.3640747070312" xml:space="preserve" height="185.578125" width="194.38026826386604" preserveAspectRatio="xMinYMin" enable-background="new 0 0 659.21 629.37" style="overflow: visible;"><path d="M395.82,279.35c22.57-1.75,45.13-3.56,67.71-5.17c3.14-0.22,4.44-1.03,4.3-4.37c-0.33-8,0.08-15.99,1.86-23.84    c0.66-2.92-0.22-3.8-3.29-3.42c-4.75,0.58-9.56,0.66-14.18,0.94c-0.65-1.03-0.2-1.55,0.28-1.99    c18.88-17.36,37.05-35.59,58.13-50.36c25.51-17.87,53.29-31.39,82.66-41.68c11.87-4.16,11.93-4.16,18.84,6.28    c14.7,22.2,25.63,46.22,34.49,71.27c1.42,4,0.52,4.89-3.65,5.06c-38.12,1.55-76.22,3.48-114.26,6.39    c-1.62,0.12-3.24,0.44-4.88,1.48c7.4,0.74,14.8,1.48,22.21,2.23c0.1,0.42,0.21,0.83,0.31,1.25c-8.09,2.97-14.49,8.85-22.42,12.07    c-1.9,0.77-3.53-0.04-5.17-1.02c-4.72-2.81-9.68-5.27-14.19-8.39c-7.17-4.96-15.08-4.27-23.06-3.89c-2.16,0.1-2.68,1.33-3.16,3.11    c-2.1,7.79-2.48,15.76-2.79,23.76c-0.1,2.63,1.12,3.06,3.35,2.86c15.26-1.38,30.59-1.62,45.82-3.43    c9.77-1.16,19.63-0.16,29.45-0.89c31.39-2.35,62.81-4.37,94.22-6.42c7.13-0.47,7.23-0.3,8.12,6.69    c4.47,35.16,3.61,70.11-4.34,104.77c-1.43,6.24-2.92,12.48-4.71,18.63c-0.9,3.11-1.89,6.2-2.97,9.25    c-1.03,2.9-2.44,5.51-3.72,8.31c-13.36,2.89-26.52,7.02-39.65,10.91c-13.33,3.94-26.63,7.99-39.92,12.07    c-13.29,4.07-26.58,8.17-39.88,12.21c-7.91,2.4-15.84,4.79-23.77,7.13c-49.44,14.61-99.54,27.06-147.88,44.27    c-3.15,1.12-6.43,2.26-9.76,1.9c-9.31-1.02-12.43-21.46-13.56-29.04c-3.82-25.66-2.91-50.94,8.5-74.78    c7.66-16.01,18.38-29.59,35.98-35.52c17.49-5.89,33.81-2.91,48.57,8.25c0.75,0.57,1.54,1.07,2.79,1.94    c-9.95-17.83-35.66-27.03-55.46-20.34c-16.9,5.71-28.81,17.45-36.94,32.64c-20.36,38.04-20.5,77.05-3.55,116.34    c1.49,3.46,1.55,4.57-2.4,5.67c-38.15,10.6-76.11,22.02-115.34,28.05c-41.83,6.43-82.04,2.54-118.96-20.31    c-10.11-6.26-18.92-14.04-27.29-22.68c21.5,4.92,43.37,6.87,65.42,9.46c-6.37-2.73-12.66-5.69-19.13-8.16    c-21.22-8.09-43.75-11.38-65.5-17.54c-1.28-0.36-2.56-0.95-3.86-1c-9.95-0.36-15.08-5.78-16.91-15.27    c-0.71-3.72-2.46-7.24-3.66-10.87c-0.39-1.17-1.67-2.44-0.46-3.62c0.9-0.87,2.2-0.14,3.32,0.11c18.01,4.07,36.01,8.15,54.02,12.17    c6.01,1.34,12.05,2.55,18.08,3.74c15.54,3.06,28.97,10.58,41.68,19.63c12.99,9.26,26.39,17.59,42.92,18.66    c17.05,1.11,33.99-0.39,50.78-3.1c17.41-2.8,34.7-6.39,52.08-9.42c3.39-0.59,4.21-1.66,3.66-5.17    c-5.19-33.47-2.22-66.07,11.23-97.38c9.34-21.74,23.02-40.27,42.94-53.32c36.48-23.91,78.97-14.89,105.64,21.21    c17.4,23.55,22.85,50.26,20.57,78.89c-0.41,5.15,2.18,3.49,4.65,2.84c37.34-9.81,74.67-19.62,112-29.46    c9.48-2.5,18.92-5.2,28.43-7.58c2.71-0.68,4.29-1.88,5.23-4.56c12.86-36.5,17.13-74.1,14.79-112.6c-0.19-3.05-0.97-3.86-4.17-3.42    c-29.87,4.04-59.76,7.87-89.65,11.79c-18.98,2.49-37.95,5.11-56.95,7.4c-3.3,0.4-3.71,1.97-3.71,4.55    c0.01,15.5,0.55,30.98,1.48,46.45c0.68,11.28,1.57,22.55,1.87,33.87c-3.54-26.31-7.13-52.62-10.56-78.94    c-0.44-3.39-1.58-4.4-5.04-3.91c-7.25,1.03-14.56,1.55-21.84,2.41c-2.05,0.24-4.08,0.33-5.84-0.69    C423.34,287.51,410.13,282.29,395.82,279.35z M585.69,215.76c0.07-0.42,0.13-0.85,0.2-1.27c-0.43-0.24-0.87-0.47-1.3-0.71    c-14.12-7.84-29.16-12.9-45.23-14.55c-3.87-0.4-8.05-1.88-11.8,0.11c-15.13,8.02-27.27,19.68-38.74,32.49    C519.54,216.93,552.72,216.97,585.69,215.76z" style=""></path><path d="M553.51,141.55c-35.75,16.77-67.16,39.76-97.39,64.5c-15.41,12.61-32.98,19.06-52.78,19.78    c-29.64,1.07-59.29,1.9-88.92,3.34c-62.06,3.01-124.02,7-184.89,20.8c-30.28,6.87-91.08,31.39-118.6,46.19    c-3.51,1.89-6.9,3.97-10.93,5.44c2.03-1.88,3.99-3.84,6.1-5.62c19.39-16.32,73.59-41.3,97.36-48.69    c23.24-7.22,47.07-11.88,71.26-14.63c3.32-0.38,5.94-1.64,8.55-3.54c27.06-19.71,54.27-39.19,83.96-54.89    c43.23-22.85,88.64-39.41,136.66-49.09c50.45-10.18,101.34-13.06,152.62-11.27c5.16,0.18,10.37,0.76,15.48,0.34    c6.61-0.55,11.55,1.84,15.77,6.61c1.3,1.47,3.03,2.56,5.08,4.27c-2.73,1.43-4.53,0.96-6.2,0.85    c-34.66-2.21-69.31-1.75-103.88,1.21c-57.65,4.93-113.47,17.55-166.22,41.94c-19.35,8.95-37.75,19.76-56.02,30.75    c-0.77,0.46-1.45,1.06-2,2.02c64.36-31.27,132.71-48.05,203.31-56.53C492.25,141.67,522.84,141.02,553.51,141.55z" style=""></path><path class="st1" d="M8.11,270.02C28.81,154.13,116.14,42.67,248.57,10.59c117.05-28.36,219.9,1,310.29,79.2    c-1.67,1.99-3.1,1.48-4.32,1.45c-14.82-0.36-29.64-0.85-44.46-1.11c-2.81-0.05-4.63-1.62-6.67-2.98    C465.15,61.53,423.64,43.65,378.14,36c-58.99-9.91-115.86-2-170.08,23.11c-52.6,24.36-94.14,61.68-125.48,110.3    c-14.78,22.93-25.42,47.88-34.01,73.71c-1.07,3.21-2.65,5.31-5.84,6.76C30.63,255.36,18.83,261.42,8.11,270.02z" style="fill: #C91B34;"></path><path class="st1" d="M607.39,476.67c-6.31,10.78-13.56,20.49-21.14,29.97c-50.32,62.93-91.16,92.13-180.86,113.74    c-5.2,1.25-10.43,2.38-15.68,3.37c-21.66,4.11-43.73,5.98-65.77,5.56c-11.06-0.21-22.11-0.99-33.09-2.31    c-8.9-1.07-17.29-3.39-25.81-5.87c-1.75-0.51-1.91-2.93-0.24-3.65c28.84-12.48,56.11-28.6,84.43-42.25    c69.74-33.6,141.13-63.15,214.95-86.64c12.67-4.03,31.36-9.58,44.1-13.37C608.28,475.23,607.98,475.76,607.39,476.67z" style="fill: #C91B34;"></path><path class="st1" d="M634.46,427.08c-3.39,8.19-7.41,15.15-11.33,22.17c-0.81,1.44-2.48,1.53-3.91,1.95    c-105.31,31.35-213.53,69.43-323.76,115.39c-20.3,8.47-40.38,17.47-59.79,27.86l-25.7,11.9l0.01,0.01    c-1.63-0.41-3.31-1.05-5.09-1.77c-28.29-11.39-54.61-26.15-78.91-44.53c-1.3-0.98-2.9-1.69-3.88-3.84    c8.04,2.66,15.65,5.4,23.58,6.96c24.67,4.84,49,2.87,73.17-3.45c34.46-9,68.21-20.25,101.98-31.5    c70.35-23.42,140.83-46.42,211.51-68.87c32.17-10.21,64.31-20.51,96.48-30.75C630.36,428.11,631.95,427.76,634.46,427.08z" style="fill: #C91B34;"></path><path d="M0.03,346.89c0-3.62,0.07-7.24-0.03-10.86c-0.05-2.11,1.05-2.85,4.18-2.62c20.37,1.48,40.86,2.05,61.18,3.98    c11.16,1.06,21.19,3.98,29.62,9.3c8.3,5.23,16.26,10.71,23.99,16.36c2.96,2.17,3.42,4,0.51,6.32    c-11.98,9.56-23.55,19.4-36.77,28.15c-11.71,7.76-25.99,8.71-41.09,6.96c-9.52-1.11-19.01-2.32-28.55-3.35    c-2.93-0.32-4.12-1.28-4.81-3.26C2.49,381.12,0.1,364.09,0.03,346.89z" style=""></path><path d="M330.58,272.92c-1.97,2.26-3.52,4.13-5.16,5.9c-9.18,9.89-18.72,19.41-28.65,28.56c-13.73,12.65-30.16,19.08-48.35,22    c-26.15,4.19-52.3,8.08-78.85,8.8c-13.17,0.36-25.28-2.97-37.1-8.41c-10.29-4.74-20.12-11.18-33.25-9.67    C111.37,312.04,301.92,273.43,330.58,272.92z M297.43,288.5c-54.51,9.67-107.67,19.81-160.23,33.02c1.75,0.63,3.41,0.72,5.06,0.61    c35.21-2.3,70.42-4.61,105.53-8.23C266.99,311.93,283.74,304.71,297.43,288.5z" style=""></path><path d="M135.73,384.21c11.28-3.25,22.73-6.17,34.1-9.21c14.14-3.78,28.3-7.4,42.87-9.28c14.84-1.92,22.38,2.7,25.9,17.37    c4.03,16.83,6.56,33.96,9.04,51.09c0.62,4.28,0.97,8.6,1.52,12.89c0.38,2.93-0.3,5.66-1.64,8.18c-3.02,5.68-6.4,5.89-10.15,0.8    c-5.13-6.97-10.14-14.04-15.51-20.83c-6.06-7.68-9-16.16-8.32-25.96c0.32-4.64,0.08-9.32,0.29-13.98    c0.27-5.96-2.07-9.71-7.72-10.51c-7.54-1.07-15-0.91-22.71,0.41c-8.73,1.49-17.53,2.58-26.38,2.91c-8.94,0.34-17-0.69-25.71-2.59    C132.78,385.07,134.25,384.63,135.73,384.21z" style=""></path><path d="M460.86,347.81c-6.03-13.02-15.32-23.34-26.09-32.47c-28.34-24.03-67.13-27.39-99.17-8.37    c-23.41,13.9-39.79,34-51.13,58.53c-2.93,6.33-5.35,12.84-8,19.31c1.36-8.86,3.92-17.36,7.2-25.68    c12.36-31.37,33.66-54.31,65.38-66.11c42.46-15.8,85.25,1.04,106.69,40.95C458,338.19,461.23,347.52,460.86,347.81z" style=""></path></svg> <svg y="400.64" viewBox="0.9000000357627869 2.7899999618530273 166.23001098632812 7.890000343322754" x="204.38499404907228" height="7.890000343322754" width="166.23001098632812" style="overflow: visible;"><g fill="#C91B34" fill-opacity="1" style=""><path d="M6.81 10.55L0.90 10.55L0.90 2.92L6.67 2.92L6.67 4.34L2.66 4.34L2.66 9.13L6.81 9.13L6.81 10.55ZM6.20 7.37L2.53 7.37L2.53 5.99L6.20 5.99L6.20 7.37ZM12.25 10.55L10.51 10.55L7.21 2.92L9.12 2.92L12.00 9.68L10.88 9.68L13.80 2.92L15.55 2.92L12.25 10.55ZM22.26 10.55L16.35 10.55L16.35 2.92L22.11 2.92L22.11 4.34L18.10 4.34L18.10 9.13L22.26 9.13L22.26 10.55ZM21.64 7.37L17.97 7.37L17.97 5.99L21.64 5.99L21.64 7.37ZM25.43 10.55L23.66 10.55L23.66 2.92L26.92 2.92Q28.51 2.92 29.39 3.66Q30.28 4.39 30.28 5.69L30.28 5.69Q30.28 6.54 29.87 7.15Q29.47 7.77 28.73 8.10Q27.99 8.42 26.96 8.42L26.96 8.42L24.64 8.42L25.43 7.65L25.43 10.55ZM30.42 10.55L28.51 10.55L26.60 7.78L28.49 7.78L30.42 10.55ZM25.43 3.52L25.43 7.85L24.64 7.02L26.87 7.02Q27.68 7.02 28.09 6.66Q28.49 6.31 28.49 5.69L28.49 5.69Q28.49 5.06 28.09 4.71Q27.68 4.36 26.87 4.36L26.87 4.36L24.64 4.36L25.43 3.52ZM35.33 10.55L33.57 10.55L33.57 7.43L33.97 8.50L30.61 2.92L32.49 2.92L35.06 7.20L33.98 7.20L36.56 2.92L38.30 2.92L34.94 8.50L35.33 7.43L35.33 10.55ZM46.16 10.55L44.41 10.55L41.12 2.92L43.03 2.92L45.91 9.68L44.78 9.68L47.70 2.92L49.46 2.92L46.16 10.55ZM56.16 10.55L50.25 10.55L50.25 2.92L56.02 2.92L56.02 4.34L52.01 4.34L52.01 9.13L56.16 9.13L56.16 10.55ZM55.55 7.37L51.88 7.37L51.88 5.99L55.55 5.99L55.55 7.37ZM64.56 10.55L62.80 10.55L62.80 2.92L64.56 2.92L64.56 10.55ZM59.33 10.55L57.57 10.55L57.57 2.92L59.33 2.92L59.33 10.55ZM62.93 7.42L59.20 7.42L59.20 5.93L62.93 5.93L62.93 7.42ZM68.14 10.55L66.37 10.55L66.37 2.92L68.14 2.92L68.14 10.55ZM73.60 10.68L73.60 10.68Q72.72 10.68 71.96 10.39Q71.20 10.10 70.65 9.57Q70.09 9.03 69.78 8.32Q69.47 7.60 69.47 6.74L69.47 6.74Q69.47 5.87 69.78 5.16Q70.09 4.44 70.65 3.90Q71.21 3.37 71.96 3.08Q72.72 2.79 73.61 2.79L73.61 2.79Q74.60 2.79 75.40 3.13Q76.20 3.48 76.75 4.14L76.75 4.14L75.61 5.19Q75.22 4.74 74.74 4.52Q74.26 4.29 73.70 4.29L73.70 4.29Q73.16 4.29 72.72 4.47Q72.27 4.64 71.94 4.97Q71.62 5.30 71.44 5.74Q71.26 6.19 71.26 6.74L71.26 6.74Q71.26 7.28 71.44 7.73Q71.62 8.17 71.94 8.50Q72.27 8.83 72.72 9.00Q73.16 9.18 73.70 9.18L73.70 9.18Q74.26 9.18 74.74 8.95Q75.22 8.73 75.61 8.27L75.61 8.27L76.75 9.32Q76.20 9.98 75.40 10.33Q74.60 10.68 73.60 10.68ZM83.43 10.55L77.84 10.55L77.84 2.92L79.60 2.92L79.60 9.11L83.43 9.11L83.43 10.55ZM90.33 10.55L84.42 10.55L84.42 2.92L90.19 2.92L90.19 4.34L86.18 4.34L86.18 9.13L90.33 9.13L90.33 10.55ZM89.72 7.37L86.04 7.37L86.04 5.99L89.72 5.99L89.72 7.37ZM96.58 10.55L94.82 10.55L94.82 2.92L96.58 2.92L96.58 10.55ZM100.90 10.68L100.90 10.68Q99.98 10.68 99.15 10.44Q98.31 10.19 97.79 9.80L97.79 9.80L98.39 8.47Q98.88 8.82 99.55 9.04Q100.22 9.26 100.91 9.26L100.91 9.26Q101.43 9.26 101.76 9.16Q102.08 9.06 102.23 8.87Q102.38 8.69 102.38 8.45L102.38 8.45Q102.38 8.14 102.14 7.96Q101.90 7.78 101.51 7.67Q101.12 7.55 100.64 7.45Q100.17 7.35 99.70 7.19Q99.22 7.04 98.83 6.80Q98.44 6.56 98.19 6.17Q97.95 5.78 97.95 5.17L97.95 5.17Q97.95 4.51 98.30 3.97Q98.65 3.43 99.37 3.11Q100.08 2.79 101.16 2.79L101.16 2.79Q101.88 2.79 102.58 2.96Q103.28 3.13 103.81 3.47L103.81 3.47L103.26 4.81Q102.73 4.50 102.20 4.35Q101.66 4.21 101.15 4.21L101.15 4.21Q100.64 4.21 100.31 4.33Q99.98 4.45 99.84 4.64Q99.70 4.83 99.70 5.08L99.70 5.08Q99.70 5.37 99.94 5.55Q100.18 5.73 100.57 5.84Q100.97 5.95 101.44 6.06Q101.91 6.17 102.39 6.31Q102.86 6.45 103.25 6.69Q103.65 6.93 103.89 7.32Q104.14 7.72 104.14 8.32L104.14 8.32Q104.14 8.96 103.78 9.49Q103.42 10.03 102.70 10.35Q101.99 10.68 100.90 10.68ZM109.24 10.55L107.43 10.55L110.83 2.92L112.57 2.92L115.98 10.55L114.13 10.55L111.34 3.81L112.04 3.81L109.24 10.55ZM114.00 8.92L109.13 8.92L109.60 7.57L113.52 7.57L114.00 8.92ZM123.51 10.68L123.51 10.68Q122.63 10.68 121.87 10.39Q121.12 10.10 120.56 9.57Q120.01 9.03 119.69 8.32Q119.38 7.60 119.38 6.74L119.38 6.74Q119.38 5.87 119.69 5.16Q120.01 4.44 120.57 3.90Q121.13 3.37 121.88 3.08Q122.63 2.79 123.53 2.79L123.53 2.79Q124.52 2.79 125.32 3.13Q126.12 3.48 126.66 4.14L126.66 4.14L125.53 5.19Q125.14 4.74 124.66 4.52Q124.18 4.29 123.61 4.29L123.61 4.29Q123.08 4.29 122.63 4.47Q122.18 4.64 121.86 4.97Q121.53 5.30 121.35 5.74Q121.17 6.19 121.17 6.74L121.17 6.74Q121.17 7.28 121.35 7.73Q121.53 8.17 121.86 8.50Q122.18 8.83 122.63 9.00Q123.08 9.18 123.61 9.18L123.61 9.18Q124.18 9.18 124.66 8.95Q125.14 8.73 125.53 8.27L125.53 8.27L126.66 9.32Q126.12 9.98 125.32 10.33Q124.52 10.68 123.51 10.68ZM128.56 10.55L126.75 10.55L130.15 2.92L131.90 2.92L135.31 10.55L133.45 10.55L130.66 3.81L131.36 3.81L128.56 10.55ZM133.32 8.92L128.45 8.92L128.92 7.57L132.84 7.57L133.32 8.92ZM137.85 10.55L136.10 10.55L136.10 2.92L137.56 2.92L142.06 8.41L141.36 8.41L141.36 2.92L143.10 2.92L143.10 10.55L141.65 10.55L137.14 5.06L137.85 5.06L137.85 10.55ZM148.94 10.55L147.20 10.55L143.91 2.92L145.81 2.92L148.69 9.68L147.57 9.68L150.49 2.92L152.24 2.92L148.94 10.55ZM153.85 10.55L152.04 10.55L155.44 2.92L157.18 2.92L160.59 10.55L158.74 10.55L155.95 3.81L156.65 3.81L153.85 10.55ZM158.61 8.92L153.74 8.92L154.21 7.57L158.13 7.57L158.61 8.92ZM163.89 10.68L163.89 10.68Q162.98 10.68 162.14 10.44Q161.30 10.19 160.79 9.80L160.79 9.80L161.39 8.47Q161.88 8.82 162.55 9.04Q163.22 9.26 163.90 9.26L163.90 9.26Q164.43 9.26 164.75 9.16Q165.07 9.06 165.22 8.87Q165.38 8.69 165.38 8.45L165.38 8.45Q165.38 8.14 165.14 7.96Q164.90 7.78 164.50 7.67Q164.11 7.55 163.64 7.45Q163.16 7.35 162.69 7.19Q162.22 7.04 161.82 6.80Q161.43 6.56 161.19 6.17Q160.94 5.78 160.94 5.17L160.94 5.17Q160.94 4.51 161.29 3.97Q161.65 3.43 162.36 3.11Q163.08 2.79 164.16 2.79L164.16 2.79Q164.87 2.79 165.57 2.96Q166.27 3.13 166.80 3.47L166.80 3.47L166.26 4.81Q165.72 4.50 165.19 4.35Q164.66 4.21 164.14 4.21L164.14 4.21Q163.63 4.21 163.31 4.33Q162.98 4.45 162.84 4.64Q162.70 4.83 162.70 5.08L162.70 5.08Q162.70 5.37 162.93 5.55Q163.17 5.73 163.57 5.84Q163.96 5.95 164.43 6.06Q164.91 6.17 165.38 6.31Q165.86 6.45 166.25 6.69Q166.64 6.93 166.89 7.32Q167.13 7.72 167.13 8.32L167.13 8.32Q167.13 8.96 166.77 9.49Q166.41 10.03 165.70 10.35Q164.98 10.68 163.89 10.68Z" transform="translate(0, 0)"></path></g></svg> <svg y="370" viewBox="1.7899999618530273 9.3100004196167 157.15000915527344 23.039997100830078" x="208.92499603271483" height="23.039997100830078" width="157.15000915527344" style="overflow: visible;"><g fill="#000" style=""><path d="M6.40 32.35L1.79 32.35L1.79 9.31L6.69 9.31L14.75 18.94L22.78 9.31L27.71 9.31L27.71 32.35L23.07 32.35L23.07 16.19L14.75 26.14L6.40 16.22L6.40 32.35ZM44.90 32.35L40.26 32.35L40.26 32.35L40.26 23.74L29.60 9.31L35.07 9.31L42.56 18.72L50.02 9.31L55.55 9.31L44.90 23.78L44.90 32.35ZM75.74 32.35L57.34 32.35L57.34 9.31L75.74 9.31Q77.02 9.31 78.06 9.94Q79.10 10.56 79.74 11.60Q80.38 12.64 80.38 13.92L80.38 13.92L80.38 27.74Q80.38 29.02 79.74 30.06Q79.10 31.10 78.06 31.73Q77.02 32.35 75.74 32.35L75.74 32.35ZM62.11 27.71L62.11 27.71L75.52 27.71Q75.62 27.71 75.66 27.66Q75.71 27.62 75.71 27.52L75.71 27.52L75.71 14.14Q75.71 14.05 75.66 14.00Q75.62 13.95 75.52 13.95L75.52 13.95L62.11 13.95Q62.05 13.95 61.98 14.00Q61.92 14.05 61.92 14.14L61.92 14.14L61.92 27.52Q61.92 27.62 61.98 27.66Q62.05 27.71 62.11 27.71ZM102.43 32.35L84.03 32.35L84.03 9.31L102.43 9.31Q103.71 9.31 104.75 9.94Q105.79 10.56 106.43 11.60Q107.07 12.64 107.07 13.92L107.07 13.92L107.07 27.74Q107.07 29.02 106.43 30.06Q105.79 31.10 104.75 31.73Q103.71 32.35 102.43 32.35L102.43 32.35ZM88.80 27.71L88.80 27.71L102.21 27.71Q102.30 27.71 102.35 27.66Q102.40 27.62 102.40 27.52L102.40 27.52L102.40 14.14Q102.40 14.05 102.35 14.00Q102.30 13.95 102.21 13.95L102.21 13.95L88.80 13.95Q88.74 13.95 88.67 14.00Q88.61 14.05 88.61 14.14L88.61 14.14L88.61 27.52Q88.61 27.62 88.67 27.66Q88.74 27.71 88.80 27.71ZM115.26 32.35L110.66 32.35L110.66 9.34L129.06 9.34Q130.34 9.34 131.38 9.97Q132.42 10.59 133.06 11.65Q133.70 12.70 133.70 13.95L133.70 13.95L133.70 20.03Q133.70 21.28 133.06 22.32Q132.42 23.36 131.38 23.98Q130.34 24.61 129.06 24.61L129.06 24.61L115.26 24.64L115.26 32.35ZM115.46 19.97L115.46 19.97L128.83 19.97Q128.93 19.97 128.98 19.92Q129.02 19.87 129.02 19.81L129.02 19.81L129.02 14.14Q129.02 14.05 128.98 14.00Q128.93 13.95 128.83 13.95L128.83 13.95L115.46 13.95Q115.36 13.95 115.31 14.00Q115.26 14.05 115.26 14.14L115.26 14.14L115.26 19.81Q115.26 19.87 115.31 19.92Q115.36 19.97 115.46 19.97ZM158.94 32.35L140.58 32.35Q139.30 32.35 138.26 31.73Q137.22 31.10 136.59 30.06Q135.97 29.02 135.97 27.74L135.97 27.74L135.97 13.92Q135.97 12.64 136.59 11.60Q137.22 10.56 138.26 9.94Q139.30 9.31 140.58 9.31L140.58 9.31L158.94 9.31L158.94 13.95L141.66 13.95Q141.15 13.95 140.86 14.22Q140.58 14.50 140.58 15.04L140.58 15.04L140.58 26.62Q140.58 27.14 140.86 27.42Q141.15 27.71 141.66 27.71L141.66 27.71L158.94 27.71L158.94 32.35Z" transform="translate(0, 0)"></path></g></svg></svg>
                </g>
            </svg>
        